<?xml version="1.0" encoding="utf-8"?>
<!-- Generator: Adobe Illustrator 16.0.0, SVG Export Plug-In . SVG Version: 6.00 Build 0)  -->
<!DOCTYPE svg PUBLIC "-//W3C//DTD SVG 1.1//EN" "http://www.w3.org/Graphics/SVG/1.1/DTD/svg11.dtd">
<svg version="1.1" id="Layer_1" xmlns="http://www.w3.org/2000/svg" xmlns:xlink="http://www.w3.org/1999/xlink" x="0px" y="0px"
	 width="75px" height="75px" viewBox="0 0 75 75" enable-background="new 0 0 75 75" xml:space="preserve">
<g>
	<polygon fill="#2EBCBB" points="36.01,40.2 63.96,21.15 72.22,21.15 74.6,25.44 72.54,32.9 41.29,41.34 73.07,62.35 72.07,69.39 
		66.75,74.61 57.92,74.5 	"/>
	<polyline fill="none" stroke="#3A3A3A" stroke-width="4" stroke-miterlimit="10" points="34.06,46 34.93,46 17.2,46 	"/>
	<polyline fill="#3A3A3A" points="36.13,39.54 53.02,17.47 61.44,17.13 62.89,20.1 	"/>
	<path fill="none" stroke="#3A3A3A" stroke-width="2" stroke-miterlimit="10" d="M34.39,13.39c0,0-2.16-17.05,4.9-10.93
		c0,0,6.82,6.89-1.24,5.03"/>
	<polyline fill="none" stroke="#3A3A3A" stroke-width="4" stroke-miterlimit="10" points="2.34,73.94 31.91,18.34 35.01,18.34 
		35.01,73.94 	"/>
</g>
<g>
</g>
<g>
</g>
<g>
</g>
<g>
</g>
<g>
</g>
<g>
</g>
</svg>
