<?xml version="1.0" encoding="utf-8"?>
<!-- Generator: Adobe Illustrator 16.0.0, SVG Export Plug-In . SVG Version: 6.00 Build 0)  -->
<!DOCTYPE svg PUBLIC "-//W3C//DTD SVG 1.1//EN" "http://www.w3.org/Graphics/SVG/1.1/DTD/svg11.dtd">
<svg version="1.1" id="Layer_1" xmlns="http://www.w3.org/2000/svg" xmlns:xlink="http://www.w3.org/1999/xlink" x="0px" y="0px"
	 width="65px" height="65px" viewBox="0 0 65 65" enable-background="new 0 0 65 65" xml:space="preserve">
<circle fill-rule="evenodd" clip-rule="evenodd" fill="#FFFFFF" cx="32.47" cy="32.5" r="32.12"/>
<g>
	<g>
		<defs>
			<rect id="SVGID_1_" x="2.36" y="27.6" width="60.22" height="9.8"/>
		</defs>
		<clipPath id="SVGID_2_">
			<use xlink:href="#SVGID_1_"  overflow="visible"/>
		</clipPath>
		<path clip-path="url(#SVGID_2_)" fill-rule="evenodd" clip-rule="evenodd" fill="#2FBDBB" d="M22.29,33.47
			c0.82-0.24,1.31-0.76,1.56-1.49c0.29-0.85,0.32-1.72,0.03-2.58c-0.29-0.87-0.85-1.5-1.82-1.53l-4.03-0.02v9.21h1.6l0-3.54h1.05
			l1.77,3.54h1.75C23.7,36.12,22.79,34.39,22.29,33.47L22.29,33.47z M21.69,32.16c-0.66,0.03-1.34,0.01-2.04,0.01V29.4
			c0.37,0,0.74,0,1.1,0c0.34,0,0.67-0.01,1.01,0c0.44,0.02,0.74,0.27,0.77,0.69c0.03,0.46,0.01,0.93-0.07,1.38
			C22.38,31.85,22.09,32.14,21.69,32.16L21.69,32.16z M21.69,32.16"/>
		<path clip-path="url(#SVGID_2_)" fill-rule="evenodd" clip-rule="evenodd" fill="#2FBDBB" d="M16.07,29.88
			c0-0.63-0.28-1.12-0.75-1.52c-0.53-0.44-1.17-0.65-1.84-0.72c-0.99-0.1-1.95,0-2.8,0.57c-0.62,0.41-0.97,0.97-0.96,1.74v4.87
			c-0.02,0.88,0.4,1.51,1.14,1.89c1.37,0.71,2.77,0.71,4.13-0.03c0.72-0.39,1.1-1.02,1.09-1.86C16.06,33.17,16.07,31.53,16.07,29.88
			L16.07,29.88z M14.53,34.55c-0.01,0.63-0.37,1.01-0.91,1.07c-0.53,0.07-1.08,0.06-1.61-0.02c-0.36-0.05-0.74-0.44-0.76-0.9
			l-0.01-4.51c0.03-0.56,0.46-0.95,0.88-1c0.54-0.06,1.1-0.05,1.64,0.03c0.41,0.06,0.74,0.46,0.77,0.95L14.53,34.55z M14.53,34.55"
			/>
		<path clip-path="url(#SVGID_2_)" fill-rule="evenodd" clip-rule="evenodd" fill="#2FBDBB" d="M32.34,29.88
			c0-0.63-0.33-1.12-0.8-1.52c-0.53-0.44-1.17-0.65-1.85-0.72c-0.99-0.1-1.95,0-2.8,0.57c-0.62,0.41-0.97,0.97-0.96,1.74l0,4.87
			c-0.01,0.88,0.4,1.56,1.14,1.95c1.37,0.71,2.77,0.7,4.13-0.03c0.71-0.38,1.15-1.07,1.15-1.91C32.34,33.17,32.34,31.53,32.34,29.88
			L32.34,29.88z M30.75,34.55c-0.01,0.63-0.37,1.01-0.91,1.07c-0.53,0.07-1.08,0.06-1.6-0.02c-0.36-0.05-0.74-0.44-0.77-0.9
			l-0.01-4.51c0.02-0.56,0.46-0.95,0.88-1c0.54-0.06,1.1-0.05,1.64,0.03c0.41,0.06,0.74,0.46,0.78,0.95L30.75,34.55z M30.75,34.55"
			/>
		<path clip-path="url(#SVGID_2_)" fill-rule="evenodd" clip-rule="evenodd" fill="#2FBDBB" d="M54.27,29.88
			c0-0.63-0.33-1.12-0.8-1.52c-0.54-0.44-1.17-0.65-1.84-0.72c-0.99-0.1-1.95,0-2.8,0.57c-0.62,0.41-0.97,0.97-0.96,1.74l0,4.87
			c-0.02,0.88,0.4,1.56,1.14,1.95c1.37,0.71,2.77,0.7,4.13-0.03c0.71-0.38,1.15-1.07,1.14-1.91C54.27,33.17,54.27,31.52,54.27,29.88
			L54.27,29.88z M52.68,34.55c-0.01,0.62-0.37,1-0.91,1.07c-0.53,0.07-1.08,0.05-1.6-0.02c-0.36-0.05-0.74-0.44-0.77-0.9l-0.01-4.51
			c0.03-0.56,0.46-0.95,0.88-1c0.54-0.06,1.1-0.05,1.64,0.03c0.41,0.06,0.74,0.46,0.78,0.95L52.68,34.55z M52.68,34.55"/>
		<path clip-path="url(#SVGID_2_)" fill-rule="evenodd" clip-rule="evenodd" fill="#2FBDBB" d="M39.66,29.45l0-1.65h-5.36
			c-0.01,0-0.01,0-0.01,0l0,9.24h1.57l0-3.6h3.29V31.9h-3.28l0-2.44H39.66z M39.66,29.45"/>
		<path clip-path="url(#SVGID_2_)" fill-rule="evenodd" clip-rule="evenodd" fill="#2FBDBB" d="M7.89,27.78
			c-0.12,0.56-0.21,1.08-0.29,1.51c-0.65-0.07-1.22-0.12-1.83-0.12c-0.81,0-1.24,0.31-1.52,1.07c-0.31,0.86-0.36,1.73-0.28,2.63
			c0.05,0.58,0.11,1.16,0.26,1.72c0.23,0.8,0.65,1.08,1.47,1.09c0.35,0.01,0.69,0.01,1.04,0c0.33-0.02,0.67-0.08,1.03-0.13
			c0.09,0.47,0.19,0.97,0.29,1.46c-1.16,0.17-2.29,0.27-3.42,0.1c-0.47-0.07-0.9-0.42-1.21-0.79c-0.62-0.74-0.83-1.62-0.96-2.56
			c-0.19-1.31-0.19-2.62,0.24-3.88c0.15-0.45,0.37-0.89,0.64-1.28c0.39-0.55,0.99-0.84,1.65-0.9C5.92,27.63,6.86,27.7,7.89,27.78
			L7.89,27.78z M7.89,27.78"/>
	</g>
	<path fill-rule="evenodd" clip-rule="evenodd" fill="#2FBDBB" d="M55.43,27.82v1.64h2.41l0,7.58h1.59l0.01-7.59h2.45v-1.62
		L55.43,27.82z M55.43,27.82"/>
	<path fill-rule="evenodd" clip-rule="evenodd" fill="#2FBDBB" d="M41.35,37.05h5.35l0-1.62H42.9l0.02-7.62h-1.57
		C41.36,30.5,41.36,34.34,41.35,37.05L41.35,37.05z M41.35,37.05"/>
</g>
<g>
</g>
<g>
</g>
<g>
</g>
<g>
</g>
<g>
</g>
<g>
</g>
</svg>
