<?xml version="1.0" encoding="utf-8"?>
<!-- Generator: Adobe Illustrator 16.0.0, SVG Export Plug-In . SVG Version: 6.00 Build 0)  -->
<!DOCTYPE svg PUBLIC "-//W3C//DTD SVG 1.1//EN" "http://www.w3.org/Graphics/SVG/1.1/DTD/svg11.dtd">
<svg version="1.1" id="Layer_1" xmlns="http://www.w3.org/2000/svg" xmlns:xlink="http://www.w3.org/1999/xlink" x="0px" y="0px"
	 width="75px" height="75px" viewBox="0 0 75 75" enable-background="new 0 0 75 75" xml:space="preserve">
<g id="g3200" transform="matrix(0.81249983,0,0,0.81249983,-53.562457,308.75005)">
	<path id="path3202" fill="#FFFFFF" d="M112.29-379.2c-24.91,0-45.11,20.2-45.11,45.11c0,24.91,20.2,45.11,45.11,45.11
		s45.11-20.2,45.11-45.11C157.4-359,137.21-379.2,112.29-379.2z"/>
	<path id="path3204" fill="#30BDBB" d="M89.3-351.71l23,19.43l23.04-19.43H89.3z M86.92-349.07v29.56l15.51-16.52L86.92-349.07z
		 M137.67-349.07l-15.46,13.04l15.46,16.52V-349.07z M104.72-334.09l-15.68,16.7h46.52l-15.68-16.65l-6.43,5.42l-1.15,0.93
		l-1.1-0.93L104.72-334.09z"/>
</g>
<g>
</g>
<g>
</g>
<g>
</g>
<g>
</g>
<g>
</g>
<g>
</g>
</svg>
