<?xml version="1.0" encoding="utf-8"?>
<!-- Generator: Adobe Illustrator 16.0.0, SVG Export Plug-In . SVG Version: 6.00 Build 0)  -->
<!DOCTYPE svg PUBLIC "-//W3C//DTD SVG 1.1//EN" "http://www.w3.org/Graphics/SVG/1.1/DTD/svg11.dtd">
<svg version="1.1" id="Layer_1" xmlns="http://www.w3.org/2000/svg" xmlns:xlink="http://www.w3.org/1999/xlink" x="0px" y="0px"
	 width="75px" height="75px" viewBox="0 0 75 75" enable-background="new 0 0 75 75" xml:space="preserve">
<g id="g3590" transform="matrix(0.81249983,0,0,0.81249983,253.93752,-56.24999)">
	<path id="path6685" fill="#FFFFFF" d="M-266.38,70.1c-25.01,0-45.28,20.27-45.28,45.28s20.27,45.28,45.28,45.28
		c25.01,0,45.28-20.27,45.28-45.28S-241.38,70.1-266.38,70.1z"/>
	<path id="path6689" fill="#30BDBB" d="M-283.45,94.34c-3.23,0-5.35,2.12-5.35,4.91c0,2.73,2.05,4.86,5.22,4.86h0.04
		c3.29,0,5.35-2.14,5.35-4.86C-278.25,96.46-280.22,94.34-283.45,94.34L-283.45,94.34z M-255.59,107.38c-5.03,0-7.24,2.75-8.49,4.69
		v0.09h-0.09c0.02-0.02,0.07-0.06,0.09-0.09v-4.02h-9.46c0.12,2.67,0,28.39,0,28.39h9.46v-15.87c0-0.85,0.06-1.69,0.31-2.3
		c0.68-1.7,2.21-3.45,4.82-3.45c3.42,0,4.82,2.59,4.82,6.41v15.21h9.42v-16.27C-244.72,111.44-249.38,107.38-255.59,107.38z
		 M-288.23,108.04v28.39h9.46v-28.39H-288.23z"/>
</g>
<g>
</g>
<g>
</g>
<g>
</g>
<g>
</g>
<g>
</g>
<g>
</g>
</svg>
