<?xml version="1.0" encoding="utf-8"?>
<!-- Generator: Adobe Illustrator 16.0.0, SVG Export Plug-In . SVG Version: 6.00 Build 0)  -->
<!DOCTYPE svg PUBLIC "-//W3C//DTD SVG 1.1//EN" "http://www.w3.org/Graphics/SVG/1.1/DTD/svg11.dtd">
<svg version="1.1" id="Layer_1" xmlns="http://www.w3.org/2000/svg" xmlns:xlink="http://www.w3.org/1999/xlink" x="0px" y="0px"
	 width="75px" height="75px" viewBox="0 0 75 75" enable-background="new 0 0 75 75" xml:space="preserve">
<g id="g24426" transform="matrix(0.81249983,0,0,0.81249983,-96.062439,13.750013)">
	<path id="path6697" fill="#FFFFFF" d="M164.38-16.12c-25.01,0-45.28,20.27-45.28,45.28c0,25.01,20.27,45.28,45.28,45.28
		c25.01,0,45.28-20.27,45.28-45.28C209.67,4.15,189.39-16.12,164.38-16.12z"/>
	<path id="path6699" fill="#30BDBB" d="M136.79,37.67c3.59,3.32,12.81,6.46,20.32-0.89c-1.35,0.21-2.48-0.04-3.33-0.89
		c-0.81-0.8-0.86-1.64-0.42-2.39c0.35-0.62,1.1-1.05,1.83-1.5c-1.33,0.25-2.46,0.12-3.47-0.4c-1.36-0.69-2.68-1.43-3.05-2.93
		c0.83-0.87,1.75-1.66,3.75-1.36c-1.88-0.63-3.57-1.45-4.79-2.67c-1.19-1.2-1.31-1.97-1.5-2.91c1.04-0.38,2.12-0.58,3.28-0.47
		c-2.63-1.34-3.75-3.19-4.36-5.21c-0.19-0.61-0.22-1.19-0.14-1.78c10.65,4.02,15.64,6.91,18.4,9.62c1.24-3.3,4.13-10.76,8.45-13.33
		c0.02,0.41-0.14,0.84-0.47,1.31c1.28-0.71,2.28-1.85,4.04-1.83c-0.2,0.83-0.78,1.5-1.92,1.92c1.15-0.44,2.31-0.81,3.52-1.03
		c1.12-0.2,1.1,0.68,0.47,1.13c-1.28,0.91-2.65,1.02-3.99,1.46c4.11,0.1,7.47,2.05,10.09,6.29c0.87,1.41,1.46,2.82,1.59,4.36
		c1.75,0.49,3.5,0.59,5.25,0.28c0.48-0.09,0.93-0.18,1.36-0.38c-0.69,1.03-1.48,1.87-2.58,2.25c-1.06,0.37-2.12,0.72-3.29,0.75
		c1.9,0.72,4,0.76,6.15,0.61c-2.63,2.53-4.64,2.47-6.66,2.44c-0.89,3.74-2.7,7.47-6.52,10.89c-5.02,4.48-10.42,6.62-16,7.08
		c-5.23,0.44-10.29,0.38-15.81-2.2C142.88,43.97,139.45,41.33,136.79,37.67L136.79,37.67z"/>
</g>
<g>
</g>
<g>
</g>
<g>
</g>
<g>
</g>
<g>
</g>
<g>
</g>
</svg>
